<mxfile host="app.diagrams.net" modified="2024-01-26T03:37:14.878Z" agent="Mozilla/5.0 (Macintosh; Intel Mac OS X 10_15_7) AppleWebKit/537.36 (KHTML, like Gecko) Chrome/120.0.0.0 Safari/537.36" etag="ATxR88ueDEzSS-esFcxu" version="22.1.17" type="github">
  <diagram name="第 1 页" id="1SULF4poi3xS_OX-S2Gi">
    <mxGraphModel dx="1834" dy="1211" grid="0" gridSize="10" guides="1" tooltips="1" connect="1" arrows="1" fold="1" page="0" pageScale="1" pageWidth="827" pageHeight="1169" math="0" shadow="0">
      <root>
        <mxCell id="0" />
        <mxCell id="1" parent="0" />
        <mxCell id="bxJUAexvs2471o88TPBo-1" value="xfys_sys" style="text;html=1;strokeColor=none;fillColor=none;align=center;verticalAlign=middle;whiteSpace=wrap;rounded=0;fontSize=16;" parent="1" vertex="1">
          <mxGeometry x="-339" y="-85" width="60" height="30" as="geometry" />
        </mxCell>
        <mxCell id="aq-lqWVgiqCTWnRQ3Yqj-1" value="用户" style="rounded=1;whiteSpace=wrap;html=1;fontSize=16;" vertex="1" parent="1">
          <mxGeometry x="-318" y="39" width="120" height="34" as="geometry" />
        </mxCell>
        <mxCell id="aq-lqWVgiqCTWnRQ3Yqj-2" value="团长" style="rounded=1;whiteSpace=wrap;html=1;fontSize=16;" vertex="1" parent="1">
          <mxGeometry x="-148" y="39" width="120" height="34" as="geometry" />
        </mxCell>
        <mxCell id="aq-lqWVgiqCTWnRQ3Yqj-3" value="代理" style="rounded=1;whiteSpace=wrap;html=1;fontSize=16;" vertex="1" parent="1">
          <mxGeometry x="22" y="39" width="120" height="34" as="geometry" />
        </mxCell>
        <mxCell id="aq-lqWVgiqCTWnRQ3Yqj-4" value="供应商" style="rounded=1;whiteSpace=wrap;html=1;fontSize=16;" vertex="1" parent="1">
          <mxGeometry x="192" y="39" width="120" height="34" as="geometry" />
        </mxCell>
      </root>
    </mxGraphModel>
  </diagram>
</mxfile>
